<?xml version="1.0" encoding="UTF-8"?>
<svg width="111px" height="44px" viewBox="0 0 111 44" version="1.1" xmlns="http://www.w3.org/2000/svg" xmlns:xlink="http://www.w3.org/1999/xlink">
    <!-- Generator: Sketch 63 (92445) - https://sketch.com -->
    <title>Group 7</title>
    <desc>Created with Sketch.</desc>
    <g id="Page-1" stroke="none" stroke-width="1" fill="none" fill-rule="evenodd">
        <g id="Logos2" transform="translate(-247.000000, -253.000000)">
            <g id="Group-7" transform="translate(247.000000, 253.000000)">
                <g id="Group-6">
                    <g id="IE-L-B" fill-rule="nonzero">
                        <path d="M4.4201194,27.8814118 L4.4201194,9.06986904e-14 L5.88583908e-15,9.06986904e-14 L5.88583908e-15,27.8814118 L4.4201194,27.8814118 Z M28.7688806,27.8814118 L28.7688806,24.1689412 L16.194403,24.1689412 L16.194403,15.1529412 L26.4826119,15.1529412 L26.4826119,11.4404706 L16.194403,11.4404706 L16.194403,3.67458824 L28.3497313,3.67458824 L28.3497313,9.06986904e-14 L11.7742836,9.06986904e-14 L11.7742836,27.8814118 L28.7688806,27.8814118 Z" id="IE" fill="#124DA6"></path>
                        <path d="M59.4810896,27.8814118 L59.4810896,24.1689412 L47.630597,24.1689412 L47.630597,9.06986904e-14 L43.2104776,9.06986904e-14 L43.2104776,27.8814118 L59.4810896,27.8814118 Z M99.5288955,27.8814118 C105.739925,27.8814118 110.274358,25.2296471 110.274358,19.6988235 C110.274358,15.9105882 107.949985,13.7512941 104.749209,13.0694118 L104.749209,12.88 C107.264104,12.0465882 108.750179,9.50847059 108.750179,6.85670588 C108.750179,1.81835294 104.596791,9.06986904e-14 98.8430149,9.06986904e-14 L90.155194,9.06986904e-14 L90.155194,27.8814118 L99.5288955,27.8814118 Z M98.3476567,11.6298824 L94.5753134,11.6298824 L94.5753134,3.40941176 L98.4619701,3.40941176 C102.424836,3.40941176 104.406269,4.508 104.406269,7.42494118 C104.406269,10.0388235 102.615358,11.6298824 98.3476567,11.6298824 Z M99.0335373,24.4341176 L94.5753134,24.4341176 L94.5753134,14.9635294 L99.0335373,14.9635294 C103.491761,14.9635294 105.930448,16.3272941 105.930448,19.4715294 C105.930448,22.8809412 103.415552,24.4341176 99.0335373,24.4341176 Z" id="LB" fill="#7F7F7F"></path>
                    </g>
                    <line x1="74.5" y1="4.5" x2="65.5" y2="22.5" id="Line-2" stroke="#7F7F7F" stroke-width="3" stroke-linecap="square"></line>
                    <line x1="74.5" y1="4.5" x2="83.5" y2="22.5" id="Line-2-Copy" stroke="#7F7F7F" stroke-width="3" stroke-linecap="square"></line>
                    <rect id="Rectangle" fill="#94C270" x="70" y="0" width="9" height="9" rx="2"></rect>
                    <rect id="Rectangle-Copy" fill="#D4D4D4" x="62" y="19" width="9" height="9" rx="2"></rect>
                    <rect id="Rectangle-Copy-2" fill="#FF593E" x="78" y="19" width="9" height="9" rx="2"></rect>
                </g>
                <path d="M0.93,40.96 L0.93,33.63 L0,33.63 L0,40.96 L0.93,40.96 Z M3.56,40.96 L3.56,37.02 C4.11,36.47 4.49,36.19 5.05,36.19 C5.77,36.19 6.08,36.62 6.08,37.64 L6.08,40.96 L6.99,40.96 L6.99,37.52 C6.99,36.13 6.47,35.39 5.33,35.39 C4.59,35.39 4.03,35.8 3.51,36.31 L3.48,36.31 L3.4,35.53 L2.65,35.53 L2.65,40.96 L3.56,40.96 Z M10.27,41.09 C10.6,41.09 10.96,40.99 11.27,40.89 L11.09,40.21 C10.91,40.28 10.66,40.35 10.47,40.35 C9.84,40.35 9.63,39.97 9.63,39.3 L9.63,36.27 L11.1,36.27 L11.1,35.53 L9.63,35.53 L9.63,34.01 L8.87,34.01 L8.76,35.53 L7.91,35.58 L7.91,36.27 L8.72,36.27 L8.72,39.28 C8.72,40.37 9.11,41.09 10.27,41.09 Z M14.17,41.09 C14.91,41.09 15.49,40.84 15.97,40.53 L15.64,39.93 C15.24,40.2 14.81,40.36 14.28,40.36 C13.25,40.36 12.54,39.62 12.48,38.46 L16.14,38.46 C16.16,38.33 16.18,38.14 16.18,37.94 C16.18,36.39 15.4,35.39 14.02,35.39 C12.76,35.39 11.57,36.49 11.57,38.25 C11.57,40.04 12.73,41.09 14.17,41.09 Z M15.38,37.81 L12.47,37.81 C12.58,36.74 13.26,36.12 14.03,36.12 C14.88,36.12 15.38,36.71 15.38,37.81 Z M18.23,40.96 L18.23,37.47 C18.59,36.54 19.15,36.22 19.6,36.22 C19.82,36.22 19.95,36.24 20.13,36.31 L20.3,35.51 C20.13,35.42 19.96,35.39 19.72,35.39 C19.11,35.39 18.56,35.83 18.18,36.52 L18.15,36.52 L18.07,35.53 L17.32,35.53 L17.32,40.96 L18.23,40.96 Z M21.96,41.09 C22.2,41.09 22.36,41.06 22.49,41.01 L22.36,40.31 C22.26,40.33 22.22,40.33 22.17,40.33 C22.03,40.33 21.91,40.22 21.91,39.94 L21.91,33 L21,33 L21,39.88 C21,40.65 21.28,41.09 21.96,41.09 Z M24.61,41.09 C24.85,41.09 25.01,41.06 25.14,41.01 L25.01,40.31 C24.91,40.33 24.87,40.33 24.82,40.33 C24.68,40.33 24.56,40.22 24.56,39.94 L24.56,33 L23.65,33 L23.65,39.88 C23.65,40.65 23.93,41.09 24.61,41.09 Z M26.76,34.41 C27.12,34.41 27.39,34.16 27.39,33.82 C27.39,33.45 27.12,33.23 26.76,33.23 C26.4,33.23 26.13,33.45 26.13,33.82 C26.13,34.16 26.4,34.41 26.76,34.41 Z M27.21,40.96 L27.21,35.53 L26.3,35.53 L26.3,40.96 L27.21,40.96 Z M30.68,43.46 C32.36,43.46 33.42,42.59 33.42,41.58 C33.42,40.69 32.79,40.29 31.53,40.29 L30.47,40.29 C29.74,40.29 29.52,40.05 29.52,39.7 C29.52,39.4 29.67,39.22 29.87,39.05 C30.11,39.17 30.41,39.24 30.68,39.24 C31.78,39.24 32.66,38.51 32.66,37.35 C32.66,36.88 32.48,36.48 32.22,36.23 L33.33,36.23 L33.33,35.53 L31.44,35.53 C31.25,35.46 30.98,35.39 30.68,35.39 C29.58,35.39 28.64,36.14 28.64,37.33 C28.64,37.98 28.99,38.5 29.35,38.79 L29.35,38.83 C29.07,39.03 28.74,39.39 28.74,39.84 C28.74,40.27 28.95,40.56 29.24,40.73 L29.24,40.77 C28.73,41.1 28.43,41.54 28.43,42 C28.43,42.94 29.35,43.46 30.68,43.46 Z M30.68,38.62 C30.05,38.62 29.52,38.12 29.52,37.33 C29.52,36.53 30.04,36.06 30.68,36.06 C31.32,36.06 31.83,36.54 31.83,37.33 C31.83,38.12 31.3,38.62 30.68,38.62 Z M30.81,42.84 C29.82,42.84 29.23,42.46 29.23,41.88 C29.23,41.56 29.4,41.24 29.79,40.96 C30.03,41.02 30.29,41.05 30.49,41.05 L31.43,41.05 C32.15,41.05 32.54,41.22 32.54,41.72 C32.54,42.29 31.85,42.84 30.81,42.84 Z M36.32,41.09 C37.06,41.09 37.64,40.84 38.12,40.53 L37.79,39.93 C37.39,40.2 36.96,40.36 36.43,40.36 C35.4,40.36 34.69,39.62 34.63,38.46 L38.29,38.46 C38.31,38.33 38.33,38.14 38.33,37.94 C38.33,36.39 37.55,35.39 36.17,35.39 C34.91,35.39 33.72,36.49 33.72,38.25 C33.72,40.04 34.88,41.09 36.32,41.09 Z M37.53,37.81 L34.62,37.81 C34.73,36.74 35.41,36.12 36.18,36.12 C37.03,36.12 37.53,36.71 37.53,37.81 Z M40.38,40.96 L40.38,37.02 C40.93,36.47 41.31,36.19 41.87,36.19 C42.59,36.19 42.9,36.62 42.9,37.64 L42.9,40.96 L43.81,40.96 L43.81,37.52 C43.81,36.13 43.29,35.39 42.15,35.39 C41.41,35.39 40.85,35.8 40.33,36.31 L40.3,36.31 L40.22,35.53 L39.47,35.53 L39.47,40.96 L40.38,40.96 Z M47.52,41.09 C48.17,41.09 48.79,40.84 49.27,40.4 L48.88,39.79 C48.54,40.1 48.1,40.33 47.6,40.33 C46.6,40.33 45.92,39.5 45.92,38.25 C45.92,37 46.64,36.15 47.62,36.15 C48.06,36.15 48.39,36.35 48.71,36.64 L49.18,36.03 C48.79,35.69 48.3,35.39 47.59,35.39 C46.2,35.39 44.97,36.44 44.97,38.25 C44.97,40.05 46.08,41.09 47.52,41.09 Z M52.22,41.09 C52.96,41.09 53.54,40.84 54.02,40.53 L53.69,39.93 C53.29,40.2 52.86,40.36 52.33,40.36 C51.3,40.36 50.59,39.62 50.53,38.46 L54.19,38.46 C54.21,38.33 54.23,38.14 54.23,37.94 C54.23,36.39 53.45,35.39 52.07,35.39 C50.81,35.39 49.62,36.49 49.62,38.25 C49.62,40.04 50.78,41.09 52.22,41.09 Z M53.43,37.81 L50.52,37.81 C50.63,36.74 51.31,36.12 52.08,36.12 C52.93,36.12 53.43,36.71 53.43,37.81 Z M61.83,40.96 L61.83,40.17 L58.42,40.17 L58.42,37.5 L61.2,37.5 L61.2,36.71 L58.42,36.71 L58.42,34.41 L61.72,34.41 L61.72,33.63 L57.49,33.63 L57.49,40.96 L61.83,40.96 Z M64,40.96 L64,37.02 C64.55,36.47 64.93,36.19 65.49,36.19 C66.21,36.19 66.52,36.62 66.52,37.64 L66.52,40.96 L67.43,40.96 L67.43,37.52 C67.43,36.13 66.91,35.39 65.77,35.39 C65.03,35.39 64.47,35.8 63.95,36.31 L63.92,36.31 L63.84,35.53 L63.09,35.53 L63.09,40.96 L64,40.96 Z M70.83,43.46 C72.51,43.46 73.57,42.59 73.57,41.58 C73.57,40.69 72.94,40.29 71.68,40.29 L70.62,40.29 C69.89,40.29 69.67,40.05 69.67,39.7 C69.67,39.4 69.82,39.22 70.02,39.05 C70.26,39.17 70.56,39.24 70.83,39.24 C71.93,39.24 72.81,38.51 72.81,37.35 C72.81,36.88 72.63,36.48 72.37,36.23 L73.48,36.23 L73.48,35.53 L71.59,35.53 C71.4,35.46 71.13,35.39 70.83,35.39 C69.73,35.39 68.79,36.14 68.79,37.33 C68.79,37.98 69.14,38.5 69.5,38.79 L69.5,38.83 C69.22,39.03 68.89,39.39 68.89,39.84 C68.89,40.27 69.1,40.56 69.39,40.73 L69.39,40.77 C68.88,41.1 68.58,41.54 68.58,42 C68.58,42.94 69.5,43.46 70.83,43.46 Z M70.83,38.62 C70.2,38.62 69.67,38.12 69.67,37.33 C69.67,36.53 70.19,36.06 70.83,36.06 C71.47,36.06 71.98,36.54 71.98,37.33 C71.98,38.12 71.45,38.62 70.83,38.62 Z M70.96,42.84 C69.97,42.84 69.38,42.46 69.38,41.88 C69.38,41.56 69.55,41.24 69.94,40.96 C70.18,41.02 70.44,41.05 70.64,41.05 L71.58,41.05 C72.3,41.05 72.69,41.22 72.69,41.72 C72.69,42.29 72,42.84 70.96,42.84 Z M74.89,34.41 C75.25,34.41 75.52,34.16 75.52,33.82 C75.52,33.45 75.25,33.23 74.89,33.23 C74.53,33.23 74.26,33.45 74.26,33.82 C74.26,34.16 74.53,34.41 74.89,34.41 Z M75.34,40.96 L75.34,35.53 L74.43,35.53 L74.43,40.96 L75.34,40.96 Z M77.89,40.96 L77.89,37.02 C78.44,36.47 78.82,36.19 79.38,36.19 C80.1,36.19 80.41,36.62 80.41,37.64 L80.41,40.96 L81.32,40.96 L81.32,37.52 C81.32,36.13 80.8,35.39 79.66,35.39 C78.92,35.39 78.36,35.8 77.84,36.31 L77.81,36.31 L77.73,35.53 L76.98,35.53 L76.98,40.96 L77.89,40.96 Z M85.08,41.09 C85.82,41.09 86.4,40.84 86.88,40.53 L86.55,39.93 C86.15,40.2 85.72,40.36 85.19,40.36 C84.16,40.36 83.45,39.62 83.39,38.46 L87.05,38.46 C87.07,38.33 87.09,38.14 87.09,37.94 C87.09,36.39 86.31,35.39 84.93,35.39 C83.67,35.39 82.48,36.49 82.48,38.25 C82.48,40.04 83.64,41.09 85.08,41.09 Z M86.29,37.81 L83.38,37.81 C83.49,36.74 84.17,36.12 84.94,36.12 C85.79,36.12 86.29,36.71 86.29,37.81 Z M90.42,41.09 C91.16,41.09 91.74,40.84 92.22,40.53 L91.89,39.93 C91.49,40.2 91.06,40.36 90.53,40.36 C89.5,40.36 88.79,39.62 88.73,38.46 L92.39,38.46 C92.41,38.33 92.43,38.14 92.43,37.94 C92.43,36.39 91.65,35.39 90.27,35.39 C89.01,35.39 87.82,36.49 87.82,38.25 C87.82,40.04 88.98,41.09 90.42,41.09 Z M91.63,37.81 L88.72,37.81 C88.83,36.74 89.51,36.12 90.28,36.12 C91.13,36.12 91.63,36.71 91.63,37.81 Z M94.48,40.96 L94.48,37.47 C94.84,36.54 95.4,36.22 95.85,36.22 C96.07,36.22 96.2,36.24 96.38,36.31 L96.55,35.51 C96.38,35.42 96.21,35.39 95.97,35.39 C95.36,35.39 94.81,35.83 94.43,36.52 L94.4,36.52 L94.32,35.53 L93.57,35.53 L93.57,40.96 L94.48,40.96 Z M97.71,34.41 C98.07,34.41 98.34,34.16 98.34,33.82 C98.34,33.45 98.07,33.23 97.71,33.23 C97.35,33.23 97.08,33.45 97.08,33.82 C97.08,34.16 97.35,34.41 97.71,34.41 Z M98.16,40.96 L98.16,35.53 L97.25,35.53 L97.25,40.96 L98.16,40.96 Z M100.71,40.96 L100.71,37.02 C101.26,36.47 101.64,36.19 102.2,36.19 C102.92,36.19 103.23,36.62 103.23,37.64 L103.23,40.96 L104.14,40.96 L104.14,37.52 C104.14,36.13 103.62,35.39 102.48,35.39 C101.74,35.39 101.18,35.8 100.66,36.31 L100.63,36.31 L100.55,35.53 L99.8,35.53 L99.8,40.96 L100.71,40.96 Z M107.54,43.46 C109.22,43.46 110.28,42.59 110.28,41.58 C110.28,40.69 109.65,40.29 108.39,40.29 L107.33,40.29 C106.6,40.29 106.38,40.05 106.38,39.7 C106.38,39.4 106.53,39.22 106.73,39.05 C106.97,39.17 107.27,39.24 107.54,39.24 C108.64,39.24 109.52,38.51 109.52,37.35 C109.52,36.88 109.34,36.48 109.08,36.23 L110.19,36.23 L110.19,35.53 L108.3,35.53 C108.11,35.46 107.84,35.39 107.54,35.39 C106.44,35.39 105.5,36.14 105.5,37.33 C105.5,37.98 105.85,38.5 106.21,38.79 L106.21,38.83 C105.93,39.03 105.6,39.39 105.6,39.84 C105.6,40.27 105.81,40.56 106.1,40.73 L106.1,40.77 C105.59,41.1 105.29,41.54 105.29,42 C105.29,42.94 106.21,43.46 107.54,43.46 Z M107.54,38.62 C106.91,38.62 106.38,38.12 106.38,37.33 C106.38,36.53 106.9,36.06 107.54,36.06 C108.18,36.06 108.69,36.54 108.69,37.33 C108.69,38.12 108.16,38.62 107.54,38.62 Z M107.67,42.84 C106.68,42.84 106.09,42.46 106.09,41.88 C106.09,41.56 106.26,41.24 106.65,40.96 C106.89,41.02 107.15,41.05 107.35,41.05 L108.29,41.05 C109.01,41.05 109.4,41.22 109.4,41.72 C109.4,42.29 108.71,42.84 107.67,42.84 Z" id="InterlligenceEngineering" fill="#7F7F7F" fill-rule="nonzero"></path>
            </g>
        </g>
    </g>
</svg>