<?xml version="1.0" encoding="UTF-8"?>
<svg width="112px" height="44px" viewBox="0 0 112 44" version="1.1" xmlns="http://www.w3.org/2000/svg" xmlns:xlink="http://www.w3.org/1999/xlink">
    <!-- Generator: Sketch 61 (89581) - https://sketch.com -->
    <title>Group 7</title>
    <desc>Created with Sketch.</desc>
    <g id="Page-1" stroke="none" stroke-width="1" fill="none" fill-rule="evenodd">
        <g id="Logos2" transform="translate(-247.000000, -253.000000)">
            <g id="Group-7" transform="translate(247.000000, 253.000000)">
                <g id="Group-6">
                    <g id="IE-L-B" fill-rule="nonzero">
                        <path d="M4.4201194,27.8814118 L4.4201194,9.06986904e-14 L5.88583908e-15,9.06986904e-14 L5.88583908e-15,27.8814118 L4.4201194,27.8814118 Z M28.7688806,27.8814118 L28.7688806,24.1689412 L16.194403,24.1689412 L16.194403,15.1529412 L26.4826119,15.1529412 L26.4826119,11.4404706 L16.194403,11.4404706 L16.194403,3.67458824 L28.3497313,3.67458824 L28.3497313,9.06986904e-14 L11.7742836,9.06986904e-14 L11.7742836,27.8814118 L28.7688806,27.8814118 Z" id="IE" fill="#124DA6"></path>
                        <path d="M59.4810896,27.8814118 L59.4810896,24.1689412 L47.630597,24.1689412 L47.630597,9.06986904e-14 L43.2104776,9.06986904e-14 L43.2104776,27.8814118 L59.4810896,27.8814118 Z M99.5288955,27.8814118 C105.739925,27.8814118 110.274358,25.2296471 110.274358,19.6988235 C110.274358,15.9105882 107.949985,13.7512941 104.749209,13.0694118 L104.749209,12.88 C107.264104,12.0465882 108.750179,9.50847059 108.750179,6.85670588 C108.750179,1.81835294 104.596791,9.06986904e-14 98.8430149,9.06986904e-14 L90.155194,9.06986904e-14 L90.155194,27.8814118 L99.5288955,27.8814118 Z M98.3476567,11.6298824 L94.5753134,11.6298824 L94.5753134,3.40941176 L98.4619701,3.40941176 C102.424836,3.40941176 104.406269,4.508 104.406269,7.42494118 C104.406269,10.0388235 102.615358,11.6298824 98.3476567,11.6298824 Z M99.0335373,24.4341176 L94.5753134,24.4341176 L94.5753134,14.9635294 L99.0335373,14.9635294 C103.491761,14.9635294 105.930448,16.3272941 105.930448,19.4715294 C105.930448,22.8809412 103.415552,24.4341176 99.0335373,24.4341176 Z" id="LB" fill="#7F7F7F"></path>
                    </g>
                    <line x1="74.5" y1="4.5" x2="65.5" y2="22.5" id="Line-2" stroke="#7F7F7F" stroke-width="3" stroke-linecap="square"></line>
                    <line x1="74.5" y1="4.5" x2="83.5" y2="22.5" id="Line-2-Copy" stroke="#7F7F7F" stroke-width="3" stroke-linecap="square"></line>
                    <rect id="Rectangle" fill="#124DA6" x="70" y="0" width="9" height="9" rx="2"></rect>
                    <rect id="Rectangle-Copy" fill="#457CCE" x="62" y="19" width="9" height="9" rx="2"></rect>
                    <rect id="Rectangle-Copy-2" fill="#74A6F2" x="78" y="19" width="9" height="9" rx="2"></rect>
                </g>
                <g id="Intelligence-Enginee" transform="translate(0.401568, 32.244000)" fill-rule="nonzero">
                    <polygon id="I" fill="#124DA6" points="1.023 8.756 1.023 0.693 1.42108547e-14 0.693 1.42108547e-14 8.756"></polygon>
                    <path d="M3.670286,8.756 L3.670286,4.422 C4.275286,3.817 4.693286,3.509 5.309286,3.509 C6.101286,3.509 6.442286,3.982 6.442286,5.104 L6.442286,8.756 L7.443286,8.756 L7.443286,4.972 C7.443286,3.443 6.871286,2.629 5.617286,2.629 C4.803286,2.629 4.187286,3.08 3.615286,3.641 L3.582286,3.641 L3.494286,2.783 L2.669286,2.783 L2.669286,8.756 L3.670286,8.756 Z M10.805572,8.899 C11.168572,8.899 11.564572,8.789 11.905572,8.679 L11.707572,7.931 C11.509572,8.008 11.234572,8.085 11.025572,8.085 C10.332572,8.085 10.101572,7.667 10.101572,6.93 L10.101572,3.597 L11.718572,3.597 L11.718572,2.783 L10.101572,2.783 L10.101572,1.111 L9.265572,1.111 L9.144572,2.783 L8.209572,2.838 L8.209572,3.597 L9.100572,3.597 L9.100572,6.908 C9.100572,8.107 9.529572,8.899 10.805572,8.899 Z M14.849858,8.899 C15.663858,8.899 16.301858,8.624 16.829858,8.283 L16.466858,7.623 C16.026858,7.92 15.553858,8.096 14.970858,8.096 C13.837858,8.096 13.056858,7.282 12.990858,6.006 L17.016858,6.006 C17.038858,5.863 17.060858,5.654 17.060858,5.434 C17.060858,3.729 16.202858,2.629 14.684858,2.629 C13.298858,2.629 11.989858,3.839 11.989858,5.775 C11.989858,7.744 13.265858,8.899 14.849858,8.899 Z M16.180858,5.291 L12.979858,5.291 C13.100858,4.114 13.848858,3.432 14.695858,3.432 C15.630858,3.432 16.180858,4.081 16.180858,5.291 Z M19.125144,8.899 C19.389144,8.899 19.565144,8.866 19.708144,8.811 L19.565144,8.041 C19.455144,8.063 19.411144,8.063 19.356144,8.063 C19.202144,8.063 19.070144,7.942 19.070144,7.634 L19.070144,5.68434189e-14 L18.069144,5.68434189e-14 L18.069144,7.568 C18.069144,8.415 18.377144,8.899 19.125144,8.899 Z M21.79443,8.899 C22.05843,8.899 22.23443,8.866 22.37743,8.811 L22.23443,8.041 C22.12443,8.063 22.08043,8.063 22.02543,8.063 C21.87143,8.063 21.73943,7.942 21.73943,7.634 L21.73943,5.68434189e-14 L20.73843,5.68434189e-14 L20.73843,7.568 C20.73843,8.415 21.04643,8.899 21.79443,8.899 Z M23.913716,1.551 C24.309716,1.551 24.606716,1.276 24.606716,0.902 C24.606716,0.495 24.309716,0.253 23.913716,0.253 C23.517716,0.253 23.220716,0.495 23.220716,0.902 C23.220716,1.276 23.517716,1.551 23.913716,1.551 Z M24.408716,8.756 L24.408716,2.783 L23.407716,2.783 L23.407716,8.756 L24.408716,8.756 Z M27.980002,11.506 C29.828002,11.506 30.994002,10.549 30.994002,9.438 C30.994002,8.459 30.301002,8.019 28.915002,8.019 L27.749002,8.019 C26.946002,8.019 26.704002,7.755 26.704002,7.37 C26.704002,7.04 26.869002,6.842 27.089002,6.655 C27.353002,6.787 27.683002,6.864 27.980002,6.864 C29.190002,6.864 30.158002,6.061 30.158002,4.785 C30.158002,4.268 29.960002,3.828 29.674002,3.553 L30.895002,3.553 L30.895002,2.783 L28.816002,2.783 C28.607002,2.706 28.310002,2.629 27.980002,2.629 C26.770002,2.629 25.736002,3.454 25.736002,4.763 C25.736002,5.478 26.121002,6.05 26.517002,6.369 L26.517002,6.413 C26.209002,6.633 25.846002,7.029 25.846002,7.524 C25.846002,7.997 26.077002,8.316 26.396002,8.503 L26.396002,8.547 C25.835002,8.91 25.505002,9.394 25.505002,9.9 C25.505002,10.934 26.517002,11.506 27.980002,11.506 Z M27.980002,6.182 C27.287002,6.182 26.704002,5.632 26.704002,4.763 C26.704002,3.883 27.276002,3.366 27.980002,3.366 C28.684002,3.366 29.245002,3.894 29.245002,4.763 C29.245002,5.632 28.662002,6.182 27.980002,6.182 Z M28.123002,10.824 C27.034002,10.824 26.385002,10.406 26.385002,9.768 C26.385002,9.416 26.572002,9.064 27.001002,8.756 C27.265002,8.822 27.551002,8.855 27.771002,8.855 L28.805002,8.855 C29.597002,8.855 30.026002,9.042 30.026002,9.592 C30.026002,10.219 29.267002,10.824 28.123002,10.824 Z M33.938288,8.899 C34.752288,8.899 35.390288,8.624 35.918288,8.283 L35.555288,7.623 C35.115288,7.92 34.642288,8.096 34.059288,8.096 C32.926288,8.096 32.145288,7.282 32.079288,6.006 L36.105288,6.006 C36.127288,5.863 36.149288,5.654 36.149288,5.434 C36.149288,3.729 35.291288,2.629 33.773288,2.629 C32.387288,2.629 31.078288,3.839 31.078288,5.775 C31.078288,7.744 32.354288,8.899 33.938288,8.899 Z M35.269288,5.291 L32.068288,5.291 C32.189288,4.114 32.937288,3.432 33.784288,3.432 C34.719288,3.432 35.269288,4.081 35.269288,5.291 Z M38.158574,8.756 L38.158574,4.422 C38.763574,3.817 39.181574,3.509 39.797574,3.509 C40.589574,3.509 40.930574,3.982 40.930574,5.104 L40.930574,8.756 L41.931574,8.756 L41.931574,4.972 C41.931574,3.443 41.359574,2.629 40.105574,2.629 C39.291574,2.629 38.675574,3.08 38.103574,3.641 L38.070574,3.641 L37.982574,2.783 L37.157574,2.783 L37.157574,8.756 L38.158574,8.756 Z M45.76686,8.899 C46.48186,8.899 47.16386,8.624 47.69186,8.14 L47.26286,7.469 C46.88886,7.81 46.40486,8.063 45.85486,8.063 C44.75486,8.063 44.00686,7.15 44.00686,5.775 C44.00686,4.4 44.79886,3.465 45.87686,3.465 C46.36086,3.465 46.72386,3.685 47.07586,4.004 L47.59286,3.333 C47.16386,2.959 46.62486,2.629 45.84386,2.629 C44.31486,2.629 42.96186,3.784 42.96186,5.775 C42.96186,7.755 44.18286,8.899 45.76686,8.899 Z M50.691146,8.899 C51.505146,8.899 52.143146,8.624 52.671146,8.283 L52.308146,7.623 C51.868146,7.92 51.395146,8.096 50.812146,8.096 C49.679146,8.096 48.898146,7.282 48.832146,6.006 L52.858146,6.006 C52.880146,5.863 52.902146,5.654 52.902146,5.434 C52.902146,3.729 52.044146,2.629 50.526146,2.629 C49.140146,2.629 47.831146,3.839 47.831146,5.775 C47.831146,7.744 49.107146,8.899 50.691146,8.899 Z M52.022146,5.291 L48.821146,5.291 C48.942146,4.114 49.690146,3.432 50.537146,3.432 C51.472146,3.432 52.022146,4.081 52.022146,5.291 Z" id="ntelligence" fill="#7F7F7F"></path>
                    <polygon id="E" fill="#124DA6" points="60.770718 8.756 60.770718 7.887 57.019718 7.887 57.019718 4.95 60.077718 4.95 60.077718 4.081 57.019718 4.081 57.019718 1.551 60.649718 1.551 60.649718 0.693 55.996718 0.693 55.996718 8.756"></polygon>
                    <path d="M62.912004,8.756 L62.912004,4.422 C63.517004,3.817 63.935004,3.509 64.551004,3.509 C65.343004,3.509 65.684004,3.982 65.684004,5.104 L65.684004,8.756 L66.685004,8.756 L66.685004,4.972 C66.685004,3.443 66.113004,2.629 64.859004,2.629 C64.045004,2.629 63.429004,3.08 62.857004,3.641 L62.824004,3.641 L62.736004,2.783 L61.911004,2.783 L61.911004,8.756 L62.912004,8.756 Z M70.17929,11.506 C72.02729,11.506 73.19329,10.549 73.19329,9.438 C73.19329,8.459 72.50029,8.019 71.11429,8.019 L69.94829,8.019 C69.14529,8.019 68.90329,7.755 68.90329,7.37 C68.90329,7.04 69.06829,6.842 69.28829,6.655 C69.55229,6.787 69.88229,6.864 70.17929,6.864 C71.38929,6.864 72.35729,6.061 72.35729,4.785 C72.35729,4.268 72.15929,3.828 71.87329,3.553 L73.09429,3.553 L73.09429,2.783 L71.01529,2.783 C70.80629,2.706 70.50929,2.629 70.17929,2.629 C68.96929,2.629 67.93529,3.454 67.93529,4.763 C67.93529,5.478 68.32029,6.05 68.71629,6.369 L68.71629,6.413 C68.40829,6.633 68.04529,7.029 68.04529,7.524 C68.04529,7.997 68.27629,8.316 68.59529,8.503 L68.59529,8.547 C68.03429,8.91 67.70429,9.394 67.70429,9.9 C67.70429,10.934 68.71629,11.506 70.17929,11.506 Z M70.17929,6.182 C69.48629,6.182 68.90329,5.632 68.90329,4.763 C68.90329,3.883 69.47529,3.366 70.17929,3.366 C70.88329,3.366 71.44429,3.894 71.44429,4.763 C71.44429,5.632 70.86129,6.182 70.17929,6.182 Z M70.32229,10.824 C69.23329,10.824 68.58429,10.406 68.58429,9.768 C68.58429,9.416 68.77129,9.064 69.20029,8.756 C69.46429,8.822 69.75029,8.855 69.97029,8.855 L71.00429,8.855 C71.79629,8.855 72.22529,9.042 72.22529,9.592 C72.22529,10.219 71.46629,10.824 70.32229,10.824 Z M74.399576,1.551 C74.795576,1.551 75.092576,1.276 75.092576,0.902 C75.092576,0.495 74.795576,0.253 74.399576,0.253 C74.003576,0.253 73.706576,0.495 73.706576,0.902 C73.706576,1.276 74.003576,1.551 74.399576,1.551 Z M74.894576,8.756 L74.894576,2.783 L73.893576,2.783 L73.893576,8.756 L74.894576,8.756 Z M77.453862,8.756 L77.453862,4.422 C78.058862,3.817 78.476862,3.509 79.092862,3.509 C79.884862,3.509 80.225862,3.982 80.225862,5.104 L80.225862,8.756 L81.226862,8.756 L81.226862,4.972 C81.226862,3.443 80.654862,2.629 79.400862,2.629 C78.586862,2.629 77.970862,3.08 77.398862,3.641 L77.365862,3.641 L77.277862,2.783 L76.452862,2.783 L76.452862,8.756 L77.453862,8.756 Z M85.117148,8.899 C85.931148,8.899 86.569148,8.624 87.097148,8.283 L86.734148,7.623 C86.294148,7.92 85.821148,8.096 85.238148,8.096 C84.105148,8.096 83.324148,7.282 83.258148,6.006 L87.284148,6.006 C87.306148,5.863 87.328148,5.654 87.328148,5.434 C87.328148,3.729 86.470148,2.629 84.952148,2.629 C83.566148,2.629 82.257148,3.839 82.257148,5.775 C82.257148,7.744 83.533148,8.899 85.117148,8.899 Z M86.448148,5.291 L83.247148,5.291 C83.368148,4.114 84.116148,3.432 84.963148,3.432 C85.898148,3.432 86.448148,4.081 86.448148,5.291 Z M90.745434,8.899 C91.559434,8.899 92.197434,8.624 92.725434,8.283 L92.362434,7.623 C91.922434,7.92 91.449434,8.096 90.866434,8.096 C89.733434,8.096 88.952434,7.282 88.886434,6.006 L92.912434,6.006 C92.934434,5.863 92.956434,5.654 92.956434,5.434 C92.956434,3.729 92.098434,2.629 90.580434,2.629 C89.194434,2.629 87.885434,3.839 87.885434,5.775 C87.885434,7.744 89.161434,8.899 90.745434,8.899 Z M92.076434,5.291 L88.875434,5.291 C88.996434,4.114 89.744434,3.432 90.591434,3.432 C91.526434,3.432 92.076434,4.081 92.076434,5.291 Z M94.96572,8.756 L94.96572,4.917 C95.36172,3.894 95.97772,3.542 96.47272,3.542 C96.71472,3.542 96.85772,3.564 97.05572,3.641 L97.24272,2.761 C97.05572,2.662 96.86872,2.629 96.60472,2.629 C95.93372,2.629 95.32872,3.113 94.91072,3.872 L94.87772,3.872 L94.78972,2.783 L93.96472,2.783 L93.96472,8.756 L94.96572,8.756 Z M98.273006,1.551 C98.669006,1.551 98.966006,1.276 98.966006,0.902 C98.966006,0.495 98.669006,0.253 98.273006,0.253 C97.877006,0.253 97.580006,0.495 97.580006,0.902 C97.580006,1.276 97.877006,1.551 98.273006,1.551 Z M98.768006,8.756 L98.768006,2.783 L97.767006,2.783 L97.767006,8.756 L98.768006,8.756 Z M101.327292,8.756 L101.327292,4.422 C101.932292,3.817 102.350292,3.509 102.966292,3.509 C103.758292,3.509 104.099292,3.982 104.099292,5.104 L104.099292,8.756 L105.100292,8.756 L105.100292,4.972 C105.100292,3.443 104.528292,2.629 103.274292,2.629 C102.460292,2.629 101.844292,3.08 101.272292,3.641 L101.239292,3.641 L101.151292,2.783 L100.326292,2.783 L100.326292,8.756 L101.327292,8.756 Z M108.594578,11.506 C110.442578,11.506 111.608578,10.549 111.608578,9.438 C111.608578,8.459 110.915578,8.019 109.529578,8.019 L108.363578,8.019 C107.560578,8.019 107.318578,7.755 107.318578,7.37 C107.318578,7.04 107.483578,6.842 107.703578,6.655 C107.967578,6.787 108.297578,6.864 108.594578,6.864 C109.804578,6.864 110.772578,6.061 110.772578,4.785 C110.772578,4.268 110.574578,3.828 110.288578,3.553 L111.509578,3.553 L111.509578,2.783 L109.430578,2.783 C109.221578,2.706 108.924578,2.629 108.594578,2.629 C107.384578,2.629 106.350578,3.454 106.350578,4.763 C106.350578,5.478 106.735578,6.05 107.131578,6.369 L107.131578,6.413 C106.823578,6.633 106.460578,7.029 106.460578,7.524 C106.460578,7.997 106.691578,8.316 107.010578,8.503 L107.010578,8.547 C106.449578,8.91 106.119578,9.394 106.119578,9.9 C106.119578,10.934 107.131578,11.506 108.594578,11.506 Z M108.594578,6.182 C107.901578,6.182 107.318578,5.632 107.318578,4.763 C107.318578,3.883 107.890578,3.366 108.594578,3.366 C109.298578,3.366 109.859578,3.894 109.859578,4.763 C109.859578,5.632 109.276578,6.182 108.594578,6.182 Z M108.737578,10.824 C107.648578,10.824 106.999578,10.406 106.999578,9.768 C106.999578,9.416 107.186578,9.064 107.615578,8.756 C107.879578,8.822 108.165578,8.855 108.385578,8.855 L109.419578,8.855 C110.211578,8.855 110.640578,9.042 110.640578,9.592 C110.640578,10.219 109.881578,10.824 108.737578,10.824 Z" id="ngineering" fill="#7F7F7F"></path>
                </g>
            </g>
        </g>
    </g>
</svg>